<?xml version="1.0" encoding="UTF-8" standalone="no"?><!DOCTYPE svg PUBLIC "-//W3C//DTD SVG 1.1//EN" "http://www.w3.org/Graphics/SVG/1.1/DTD/svg11.dtd"><svg width="100%" height="100%" viewBox="0 0 882 273" version="1.1" xmlns="http://www.w3.org/2000/svg" xmlns:xlink="http://www.w3.org/1999/xlink" xml:space="preserve" xmlns:serif="http://www.serif.com/" style="fill-rule:evenodd;clip-rule:evenodd;stroke-linejoin:round;stroke-miterlimit:2;"><g id="Logo"><g id="Text"><g id="Cleanup"><path d="M319.275,203.989c3.105,0 5.767,0.76 8.049,2.281c2.281,1.521 3.929,3.613 5.007,6.275l14.767,0c-1.394,-6.592 -4.5,-11.789 -9.317,-15.655c-4.816,-3.866 -10.901,-5.767 -18.189,-5.767c-5.578,0 -10.521,1.267 -14.768,3.676c-4.246,2.471 -7.478,5.957 -9.823,10.394c-2.282,4.436 -3.486,9.507 -3.486,15.211c0,5.704 1.141,10.774 3.486,15.211c2.281,4.436 5.577,7.922 9.823,10.394c4.247,2.471 9.127,3.676 14.768,3.676c7.352,0 13.373,-1.965 18.189,-5.831c4.817,-3.866 7.923,-9.063 9.317,-15.591l-14.831,0c-1.077,2.598 -2.788,4.69 -5.007,6.211c-2.281,1.521 -4.943,2.281 -8.049,2.281c-4.056,0 -7.352,-1.457 -9.887,-4.436c-2.472,-2.979 -3.739,-6.908 -3.739,-11.915c0,-5.007 1.267,-9 3.739,-11.979c2.535,-2.915 5.831,-4.436 9.951,-4.436Z" style="fill:#52bf0c;fill-rule:nonzero;"/><rect x="354.83" y="189.031" width="13.943" height="60.273" style="fill:#52bf0c;"/><path d="M410.857,206.017c-3.422,-1.838 -7.415,-2.789 -11.915,-2.789c-4.437,0 -8.429,0.951 -11.915,2.789c-3.486,1.901 -6.211,4.563 -8.113,8.049c-1.901,3.486 -2.915,7.669 -2.915,12.422c0,4.753 0.95,8.873 2.915,12.359c1.965,3.549 4.627,6.211 8.113,8.112c3.422,1.902 7.415,2.789 11.852,2.789c3.802,0 7.225,-0.697 10.33,-2.155c3.106,-1.458 5.641,-3.422 7.669,-5.957c2.028,-2.536 3.296,-5.388 3.93,-8.62l-14.768,0c-0.443,1.648 -1.331,2.979 -2.662,3.993c-1.33,1.014 -3.042,1.521 -5.133,1.521c-2.472,0 -4.437,-0.761 -6.021,-2.218c-1.585,-1.521 -2.472,-3.93 -2.599,-7.352l31.563,0c0.253,-1.331 0.38,-2.599 0.38,-3.74c0,-4.373 -0.95,-8.175 -2.788,-11.535c-1.902,-3.232 -4.5,-5.83 -7.923,-7.668Zm-21.105,17.239c0.19,-2.916 1.141,-5.134 2.852,-6.655c1.711,-1.521 3.803,-2.282 6.338,-2.282c2.472,0 4.5,0.761 6.148,2.219c1.648,1.521 2.471,3.739 2.408,6.718l-17.746,0Z" style="fill:#52bf0c;fill-rule:nonzero;"/><path d="M460.61,212.038c-1.205,-2.726 -3.043,-4.881 -5.514,-6.465c-2.472,-1.584 -5.514,-2.345 -8.937,-2.345c-3.739,0 -7.098,0.951 -10.077,2.789c-2.979,1.901 -5.324,4.563 -7.035,8.049c-1.711,3.486 -2.599,7.669 -2.599,12.422c0,4.753 0.888,8.873 2.599,12.359c1.711,3.549 4.056,6.211 7.035,8.112c2.979,1.902 6.338,2.789 10.077,2.789c3.486,0 6.465,-0.76 8.937,-2.345c2.471,-1.584 4.373,-3.739 5.514,-6.465l0,8.24l13.88,0l0,-45.443l-13.88,0l0,8.303Zm-2.789,22.626c-1.901,2.028 -4.246,3.042 -7.225,3.042c-2.979,0 -5.387,-0.951 -7.225,-2.915c-1.838,-1.965 -2.726,-4.69 -2.726,-8.176c0,-3.486 0.888,-6.211 2.726,-8.176c1.838,-1.965 4.246,-2.916 7.225,-2.916c2.915,0 5.324,1.015 7.225,2.979c1.901,1.965 2.789,4.69 2.789,8.113c0,3.295 -0.951,6.021 -2.789,8.049Z" style="fill:#52bf0c;fill-rule:nonzero;"/><path d="M512.897,203.355c-3.486,0 -6.528,0.76 -9.063,2.345c-2.599,1.584 -4.5,3.739 -5.831,6.464l0,-8.302l-13.943,0l0,45.442l13.943,0l0,-24.147c0,-3.296 0.824,-5.894 2.472,-7.669c1.648,-1.774 3.866,-2.662 6.718,-2.662c2.662,0 4.817,0.824 6.401,2.599c1.585,1.711 2.409,4.056 2.409,7.098l0,24.781l13.943,0l0,-26.429c0,-6.084 -1.521,-10.837 -4.627,-14.323c-3.042,-3.486 -7.161,-5.197 -12.422,-5.197Z" style="fill:#52bf0c;fill-rule:nonzero;"/><path d="M570.382,227.946c0,3.295 -0.824,5.894 -2.472,7.669c-1.648,1.774 -3.866,2.661 -6.655,2.661c-2.725,0 -4.88,-0.823 -6.464,-2.535c-1.585,-1.711 -2.409,-4.119 -2.409,-7.225l0,-24.718l-13.88,0l0,26.429c0,6.085 1.521,10.838 4.627,14.324c3.042,3.486 7.225,5.197 12.422,5.197c3.423,0 6.401,-0.76 9,-2.345c2.599,-1.584 4.5,-3.676 5.831,-6.338l0,8.239l14.007,0l0,-45.442l-14.007,0l0,24.084Z" style="fill:#52bf0c;fill-rule:nonzero;"/><path d="M639.401,214.129c-1.711,-3.486 -4.056,-6.211 -7.035,-8.049c-2.978,-1.901 -6.337,-2.789 -10.077,-2.789c-3.486,0 -6.464,0.761 -8.936,2.345c-2.472,1.585 -4.31,3.74 -5.451,6.465l0,-8.239l-13.943,0l0,67.118l13.943,0l0,-29.915c1.141,2.725 2.979,4.88 5.451,6.465c2.472,1.584 5.514,2.345 8.936,2.345c3.74,0 7.099,-0.951 10.077,-2.789c2.979,-1.901 5.324,-4.563 7.035,-8.112c1.712,-3.55 2.536,-7.669 2.536,-12.359c0.063,-4.817 -0.824,-9 -2.536,-12.486Zm-14.323,20.598c-1.838,1.965 -4.247,2.916 -7.225,2.916c-2.916,0 -5.324,-1.014 -7.226,-3.042c-1.901,-2.029 -2.788,-4.691 -2.788,-8.05c0,-3.422 0.95,-6.147 2.788,-8.112c1.902,-1.965 4.247,-2.979 7.226,-2.979c2.978,0 5.387,0.951 7.225,2.916c1.838,1.964 2.725,4.69 2.725,8.175c0,3.486 -0.887,6.212 -2.725,8.176Z" style="fill:#52bf0c;fill-rule:nonzero;"/></g><g id="Project"><path d="M338.035,98.653c-4.373,-4.12 -10.711,-6.211 -19.077,-6.211l-27.507,0l0,70.16l16.986,0l0,-24.591l10.521,0c5.514,0 10.14,-0.951 14.007,-2.915c3.866,-1.965 6.718,-4.627 8.682,-8.049c1.965,-3.423 2.916,-7.289 2.916,-11.662c0,-7.035 -2.218,-12.613 -6.528,-16.732Zm-20.979,25.732l-8.619,0l0,-18.253l8.619,0c6.845,0 10.204,3.105 10.204,9.253c0,6.021 -3.359,9 -10.204,9Z" style="fill:#52bf0c;fill-rule:nonzero;"/><path d="M369.851,117.666l0,-10.394l-16.985,0l0,55.393l16.985,0l0,-25.224c0,-4.564 1.268,-7.796 3.739,-9.697c2.472,-1.902 5.958,-2.852 10.458,-2.852l4.88,0l0,-18.19c-3.929,0 -7.542,1.014 -10.838,2.979c-3.359,1.901 -6.084,4.563 -8.239,7.985Z" style="fill:#52bf0c;fill-rule:nonzero;"/><path d="M446.92,119.821c-2.472,-4.309 -5.894,-7.605 -10.204,-9.887c-4.31,-2.281 -9.254,-3.422 -14.767,-3.422c-5.514,0 -10.395,1.141 -14.768,3.422c-4.373,2.282 -7.795,5.578 -10.267,9.887c-2.472,4.31 -3.74,9.317 -3.74,15.085c0,5.767 1.268,10.774 3.74,15.084c2.472,4.309 5.894,7.605 10.267,9.887c4.373,2.281 9.317,3.422 14.768,3.422c5.513,0 10.394,-1.141 14.767,-3.422c4.31,-2.282 7.732,-5.578 10.204,-9.887c2.472,-4.31 3.739,-9.317 3.739,-15.084c0,-5.768 -1.267,-10.775 -3.739,-15.085Zm-16.796,25.225c-2.155,2.345 -4.88,3.486 -8.112,3.486c-3.232,0 -5.958,-1.141 -8.176,-3.486c-2.218,-2.345 -3.296,-5.704 -3.296,-10.14c0,-4.437 1.078,-7.796 3.296,-10.204c2.218,-2.345 4.944,-3.55 8.176,-3.55c3.232,0 5.957,1.205 8.112,3.55c2.155,2.345 3.296,5.767 3.296,10.204c-0.063,4.436 -1.141,7.795 -3.296,10.14Z" style="fill:#52bf0c;fill-rule:nonzero;"/><path d="M468.088,82.745c-3.042,0 -5.514,0.824 -7.352,2.535c-1.838,1.711 -2.788,3.803 -2.788,6.401c0,2.535 0.95,4.627 2.788,6.275c1.838,1.711 4.31,2.535 7.352,2.535c3.043,0 5.514,-0.824 7.352,-2.535c1.838,-1.712 2.789,-3.803 2.789,-6.275c0,-2.598 -0.951,-4.69 -2.789,-6.401c-1.838,-1.711 -4.309,-2.535 -7.352,-2.535Z" style="fill:#52bf0c;fill-rule:nonzero;"/><path d="M459.659,169.447c0,1.775 -0.38,3.042 -1.204,3.803c-0.824,0.76 -2.092,1.141 -3.866,1.141l-4.183,0l0,14.577l6.464,0c13.246,0 19.838,-6.592 19.838,-19.774l0,-62.048l-17.049,0l0,62.301Z" style="fill:#52bf0c;fill-rule:nonzero;"/><path d="M527.728,109.934c-4.183,-2.218 -9,-3.359 -14.514,-3.359c-5.45,0 -10.267,1.141 -14.514,3.423c-4.246,2.281 -7.542,5.577 -9.887,9.823c-2.345,4.247 -3.549,9.317 -3.549,15.148c0,5.767 1.204,10.774 3.549,15.084c2.409,4.31 5.641,7.606 9.887,9.887c4.183,2.282 9,3.423 14.451,3.423c4.626,0 8.809,-0.888 12.612,-2.599c3.803,-1.774 6.908,-4.183 9.317,-7.225c2.472,-3.106 4.056,-6.591 4.753,-10.458l-17.936,0c-0.507,1.965 -1.648,3.613 -3.296,4.881c-1.648,1.267 -3.739,1.901 -6.274,1.901c-2.979,0 -5.451,-0.887 -7.352,-2.725c-1.902,-1.838 -2.979,-4.817 -3.169,-9l38.408,0c0.316,-1.648 0.507,-3.169 0.507,-4.563c0,-5.324 -1.141,-9.951 -3.423,-14.071c-2.155,-4.183 -5.387,-7.351 -9.57,-9.57Zm-25.669,20.915c0.254,-3.549 1.395,-6.274 3.486,-8.112c2.028,-1.838 4.627,-2.789 7.732,-2.789c2.979,0 5.451,0.887 7.479,2.725c2.028,1.838 2.979,4.564 2.916,8.176l-21.613,0Z" style="fill:#52bf0c;fill-rule:nonzero;"/><path d="M574.311,121.152c2.536,0 4.627,0.634 6.275,1.965c1.648,1.331 2.725,3.169 3.296,5.577l17.936,0c-1.268,-6.908 -4.31,-12.295 -9.127,-16.225c-4.817,-3.929 -10.838,-5.894 -17.936,-5.894c-5.451,0 -10.267,1.141 -14.514,3.423c-4.246,2.281 -7.542,5.577 -9.887,9.823c-2.345,4.247 -3.549,9.317 -3.549,15.148c0,5.767 1.204,10.774 3.549,15.084c2.409,4.31 5.641,7.606 9.887,9.887c4.183,2.282 9,3.423 14.451,3.423c7.161,0 13.119,-1.965 17.936,-5.895c4.817,-3.929 7.859,-9.316 9.126,-16.225l-17.936,0c-0.507,2.409 -1.648,4.247 -3.296,5.578c-1.647,1.331 -3.739,1.965 -6.274,1.965c-2.979,0 -5.451,-1.205 -7.352,-3.55c-1.901,-2.345 -2.852,-5.767 -2.852,-10.267c0,-4.5 0.951,-7.922 2.852,-10.267c1.965,-2.409 4.437,-3.55 7.415,-3.55Z" style="fill:#52bf0c;fill-rule:nonzero;"/><path d="M636.613,148.025c-2.092,0 -3.613,-0.444 -4.5,-1.268c-0.887,-0.887 -1.331,-2.408 -1.331,-4.563l0,-20.661l11.091,0l0,-14.261l-11.091,0l0,-13.626l-16.986,0l0,13.626l-7.415,0l0,14.261l7.415,0l0,20.344c0,7.416 1.775,12.739 5.388,15.908c3.612,3.233 8.619,4.817 15.147,4.817l7.669,0l0,-14.577l-5.387,0Z" style="fill:#52bf0c;fill-rule:nonzero;"/></g></g><g id="Icon"><path d="M133.448,201.263c15.274,0 27.696,-12.422 27.696,-27.696c0,-15.275 -12.422,-27.697 -27.696,-27.697c-15.275,0 -27.697,12.422 -27.697,27.697c0,15.274 12.422,27.696 27.697,27.696Z" style="fill:#52bf0c;fill-rule:nonzero;"/><path d="M232.002,106.955l-197.172,0l-32.83,142.413l32.894,0l11.091,-47.661l11.091,47.661l24.338,0l0,-75.801c0,-28.711 23.323,-52.034 52.034,-52.034c28.71,0 52.034,23.323 52.034,52.034c0,28.774 -23.324,52.034 -52.034,52.034c-10.204,0 -19.648,-2.916 -27.697,-7.986l0,31.753l100.076,0l11.598,-47.217l10.204,47.217l37.203,0l-32.83,-142.413Z" style="fill:#52bf0c;fill-rule:nonzero;"/><path d="M232.129,92.442c0,-21.422 -17.366,-38.725 -38.725,-38.725l-40.562,0l0,-32.323c0,-10.711 -8.683,-19.394 -19.394,-19.394c-10.711,0 -19.394,8.683 -19.394,19.394l0,32.323l-40.563,0c-21.422,0 -38.724,17.366 -38.724,38.725l197.362,0Z" style="fill:#52bf0c;fill-rule:nonzero;"/></g></g></svg>