<?xml version="1.0" encoding="UTF-8" standalone="no"?><!DOCTYPE svg PUBLIC "-//W3C//DTD SVG 1.1//EN" "http://www.w3.org/Graphics/SVG/1.1/DTD/svg11.dtd"><svg width="100%" height="100%" viewBox="0 0 650 300" version="1.1" xmlns="http://www.w3.org/2000/svg" xmlns:xlink="http://www.w3.org/1999/xlink" xml:space="preserve" xmlns:serif="http://www.serif.com/" style="fill-rule:evenodd;clip-rule:evenodd;stroke-linejoin:round;stroke-miterlimit:2;"><rect id="Horizontal-No-Effects" serif:id="Horizontal No Effects" x="0" y="0" width="650" height="300" style="fill:none;"/><g id="Text"><g><path d="M338.78,120.484c-3.758,-3.541 -9.205,-5.338 -16.394,-5.338l-23.639,0l0,60.294l14.597,0l0,-21.133l9.042,0c4.738,0 8.714,-0.817 12.037,-2.505c3.322,-1.689 5.773,-3.976 7.462,-6.917c1.688,-2.942 2.505,-6.264 2.505,-10.022c0,-6.046 -1.906,-10.839 -5.61,-14.379Zm-18.028,22.113l-7.408,0l0,-15.686l7.408,0c5.882,0 8.769,2.669 8.769,7.952c0,5.174 -2.887,7.734 -8.769,7.734Z" style="fill:#27c772;fill-rule:nonzero;"/><path d="M366.122,136.824l0,-8.933l-14.597,0l0,47.604l14.597,0l0,-21.678c0,-3.922 1.089,-6.699 3.214,-8.333c2.124,-1.634 5.119,-2.451 8.986,-2.451l4.194,0l0,-15.632c-3.377,0 -6.481,0.871 -9.313,2.56c-2.887,1.634 -5.229,3.921 -7.081,6.863Z" style="fill:#27c772;fill-rule:nonzero;"/><path d="M432.353,138.675c-2.124,-3.703 -5.065,-6.536 -8.769,-8.496c-3.704,-1.961 -7.952,-2.942 -12.691,-2.942c-4.738,0 -8.932,0.981 -12.69,2.942c-3.759,1.96 -6.7,4.793 -8.824,8.496c-2.124,3.704 -3.213,8.007 -3.213,12.963c0,4.957 1.089,9.26 3.213,12.963c2.124,3.704 5.065,6.536 8.824,8.497c3.758,1.961 8.006,2.941 12.69,2.941c4.739,0 8.933,-0.98 12.691,-2.941c3.704,-1.961 6.645,-4.793 8.769,-8.497c2.124,-3.703 3.213,-8.006 3.213,-12.963c0,-4.956 -1.089,-9.259 -3.213,-12.963Zm-14.434,21.678c-1.851,2.015 -4.194,2.996 -6.971,2.996c-2.778,0 -5.12,-0.981 -7.026,-2.996c-1.907,-2.015 -2.833,-4.902 -2.833,-8.715c0,-3.812 0.926,-6.699 2.833,-8.769c1.906,-2.015 4.248,-3.05 7.026,-3.05c2.777,0 5.12,1.035 6.971,3.05c1.852,2.016 2.833,4.957 2.833,8.769c-0.055,3.813 -0.981,6.7 -2.833,8.715Z" style="fill:#27c772;fill-rule:nonzero;"/><path d="M450.545,106.813c-2.615,0 -4.739,0.708 -6.318,2.178c-1.58,1.471 -2.397,3.268 -2.397,5.501c0,2.179 0.817,3.976 2.397,5.393c1.579,1.47 3.703,2.178 6.318,2.178c2.614,0 4.738,-0.708 6.318,-2.178c1.579,-1.471 2.396,-3.268 2.396,-5.393c0,-2.233 -0.817,-4.03 -2.396,-5.501c-1.58,-1.47 -3.704,-2.178 -6.318,-2.178Z" style="fill:#27c772;fill-rule:nonzero;"/><path d="M443.301,181.322c0,1.525 -0.327,2.615 -1.035,3.268c-0.708,0.654 -1.798,0.981 -3.323,0.981l-3.594,0l0,12.527l5.555,0c11.384,0 17.048,-5.664 17.048,-16.993l0,-53.323l-14.651,0l0,53.54Z" style="fill:#27c772;fill-rule:nonzero;"/><path d="M501.797,130.179c-3.594,-1.907 -7.734,-2.887 -12.472,-2.887c-4.684,0 -8.824,0.98 -12.473,2.941c-3.649,1.961 -6.482,4.793 -8.497,8.442c-2.015,3.65 -3.05,8.007 -3.05,13.018c0,4.956 1.035,9.259 3.05,12.963c2.07,3.703 4.848,6.536 8.497,8.497c3.595,1.96 7.734,2.941 12.418,2.941c3.976,0 7.571,-0.763 10.839,-2.233c3.268,-1.525 5.937,-3.595 8.006,-6.21c2.125,-2.668 3.486,-5.664 4.085,-8.987l-15.414,0c-0.435,1.689 -1.416,3.105 -2.832,4.194c-1.416,1.09 -3.213,1.634 -5.392,1.634c-2.56,0 -4.684,-0.762 -6.318,-2.342c-1.634,-1.579 -2.56,-4.139 -2.723,-7.734l33.006,0c0.273,-1.416 0.436,-2.723 0.436,-3.921c0,-4.576 -0.98,-8.552 -2.941,-12.092c-1.852,-3.595 -4.63,-6.318 -8.225,-8.224Zm-22.058,17.974c0.217,-3.051 1.198,-5.393 2.995,-6.972c1.743,-1.58 3.976,-2.397 6.645,-2.397c2.56,0 4.684,0.763 6.427,2.342c1.743,1.58 2.56,3.922 2.506,7.027l-18.573,0Z" style="fill:#27c772;fill-rule:nonzero;"/><path d="M541.83,139.819c2.179,0 3.976,0.545 5.392,1.689c1.416,1.143 2.342,2.723 2.832,4.793l15.414,0c-1.089,-5.937 -3.703,-10.567 -7.843,-13.944c-4.139,-3.377 -9.313,-5.065 -15.414,-5.065c-4.684,0 -8.823,0.98 -12.472,2.941c-3.65,1.961 -6.482,4.793 -8.497,8.442c-2.015,3.65 -3.05,8.007 -3.05,13.018c0,4.956 1.035,9.259 3.05,12.963c2.07,3.703 4.847,6.536 8.497,8.497c3.594,1.96 7.734,2.941 12.418,2.941c6.155,0 11.274,-1.689 15.414,-5.066c4.139,-3.377 6.754,-8.006 7.843,-13.943l-15.414,0c-0.436,2.07 -1.416,3.649 -2.832,4.793c-1.416,1.144 -3.214,1.688 -5.392,1.688c-2.56,0 -4.684,-1.034 -6.318,-3.05c-1.634,-2.015 -2.451,-4.956 -2.451,-8.823c0,-3.867 0.817,-6.808 2.451,-8.824c1.688,-2.069 3.812,-3.05 6.372,-3.05Z" style="fill:#27c772;fill-rule:nonzero;"/><path d="M595.37,162.913c-1.797,0 -3.104,-0.381 -3.867,-1.089c-0.762,-0.763 -1.144,-2.07 -1.144,-3.922l0,-17.756l9.532,0l0,-12.255l-9.532,0l0,-11.71l-14.596,0l0,11.71l-6.373,0l0,12.255l6.373,0l0,17.484c0,6.372 1.525,10.947 4.629,13.671c3.105,2.777 7.408,4.139 13.018,4.139l6.59,0l0,-12.527l-4.63,0Z" style="fill:#27c772;fill-rule:nonzero;"/></g><g><path d="M322.658,211.007c2.669,0 4.956,0.653 6.917,1.96c1.961,1.308 3.377,3.105 4.303,5.392l12.691,0c-1.199,-5.664 -3.867,-10.13 -8.007,-13.453c-4.139,-3.322 -9.368,-4.956 -15.632,-4.956c-4.793,0 -9.041,1.089 -12.69,3.159c-3.65,2.124 -6.427,5.12 -8.443,8.932c-1.96,3.813 -2.995,8.17 -2.995,13.072c0,4.902 0.98,9.26 2.995,13.072c1.961,3.813 4.793,6.808 8.443,8.933c3.649,2.124 7.843,3.159 12.69,3.159c6.318,0 11.493,-1.689 15.632,-5.011c4.14,-3.323 6.808,-7.789 8.007,-13.399l-12.745,0c-0.926,2.233 -2.397,4.031 -4.303,5.338c-1.961,1.307 -4.249,1.961 -6.918,1.961c-3.485,0 -6.318,-1.253 -8.496,-3.813c-2.124,-2.56 -3.214,-5.937 -3.214,-10.24c0,-4.303 1.09,-7.734 3.214,-10.294c2.178,-2.505 5.011,-3.812 8.551,-3.812Z" style="fill:#27c772;fill-rule:nonzero;"/><rect x="353.214" y="198.153" width="11.983" height="51.797" style="fill:#27c772;"/><path d="M401.362,212.749c-2.942,-1.579 -6.373,-2.396 -10.24,-2.396c-3.813,0 -7.244,0.817 -10.24,2.396c-2.995,1.634 -5.337,3.922 -6.971,6.918c-1.634,2.995 -2.506,6.59 -2.506,10.675c0,4.085 0.817,7.625 2.506,10.621c1.688,3.05 3.976,5.338 6.971,6.972c2.942,1.634 6.373,2.396 10.186,2.396c3.268,0 6.209,-0.599 8.878,-1.852c2.668,-1.252 4.847,-2.941 6.59,-5.12c1.743,-2.178 2.832,-4.629 3.377,-7.407l-12.691,0c-0.381,1.416 -1.144,2.56 -2.287,3.431c-1.144,0.872 -2.615,1.308 -4.412,1.308c-2.124,0 -3.813,-0.654 -5.174,-1.907c-1.362,-1.307 -2.125,-3.377 -2.234,-6.318l27.125,0c0.218,-1.144 0.326,-2.233 0.326,-3.213c0,-3.758 -0.817,-7.026 -2.396,-9.913c-1.634,-2.778 -3.867,-5.011 -6.808,-6.591Zm-18.138,14.815c0.164,-2.505 0.981,-4.411 2.451,-5.719c1.471,-1.307 3.268,-1.96 5.447,-1.96c2.124,0 3.867,0.653 5.283,1.906c1.416,1.307 2.124,3.213 2.07,5.773l-15.251,0Z" style="fill:#27c772;fill-rule:nonzero;"/><path d="M444.118,217.924c-1.035,-2.342 -2.615,-4.194 -4.739,-5.556c-2.124,-1.361 -4.738,-2.015 -7.68,-2.015c-3.213,0 -6.1,0.817 -8.66,2.396c-2.56,1.634 -4.575,3.922 -6.046,6.918c-1.47,2.995 -2.233,6.59 -2.233,10.675c0,4.085 0.763,7.625 2.233,10.621c1.471,3.05 3.486,5.338 6.046,6.972c2.56,1.634 5.447,2.396 8.66,2.396c2.996,0 5.556,-0.653 7.68,-2.015c2.124,-1.362 3.758,-3.214 4.739,-5.556l0,7.081l11.928,0l0,-39.052l-11.928,0l0,7.135Zm-2.397,19.444c-1.634,1.743 -3.649,2.615 -6.209,2.615c-2.56,0 -4.63,-0.817 -6.209,-2.506c-1.58,-1.688 -2.342,-4.03 -2.342,-7.026c0,-2.996 0.762,-5.338 2.342,-7.026c1.579,-1.689 3.649,-2.506 6.209,-2.506c2.505,0 4.575,0.872 6.209,2.56c1.634,1.689 2.397,4.031 2.397,6.972c0,2.832 -0.817,5.174 -2.397,6.917Z" style="fill:#27c772;fill-rule:nonzero;"/><path d="M489.052,210.462c-2.995,0 -5.61,0.653 -7.788,2.015c-2.233,1.362 -3.867,3.214 -5.011,5.556l0,-7.135l-11.983,0l0,39.052l11.983,0l0,-20.752c0,-2.832 0.708,-5.065 2.124,-6.59c1.416,-1.525 3.322,-2.288 5.773,-2.288c2.288,0 4.14,0.708 5.501,2.233c1.362,1.471 2.07,3.486 2.07,6.101l0,21.296l11.983,0l0,-22.713c0,-5.228 -1.307,-9.313 -3.976,-12.309c-2.615,-2.996 -6.155,-4.466 -10.676,-4.466Z" style="fill:#27c772;fill-rule:nonzero;"/><path d="M538.453,231.595c0,2.832 -0.708,5.065 -2.124,6.59c-1.416,1.525 -3.322,2.288 -5.719,2.288c-2.342,0 -4.194,-0.708 -5.556,-2.179c-1.361,-1.47 -2.069,-3.54 -2.069,-6.209l0,-21.242l-11.928,0l0,22.713c0,5.228 1.307,9.313 3.976,12.309c2.614,2.996 6.209,4.466 10.675,4.466c2.941,0 5.501,-0.653 7.734,-2.015c2.233,-1.362 3.867,-3.159 5.011,-5.447l0,7.081l12.037,0l0,-39.052l-12.037,0l0,20.697Z" style="fill:#27c772;fill-rule:nonzero;"/><path d="M597.767,219.721c-1.471,-2.996 -3.486,-5.338 -6.046,-6.917c-2.56,-1.634 -5.446,-2.397 -8.66,-2.397c-2.996,0 -5.556,0.654 -7.68,2.016c-2.124,1.361 -3.703,3.213 -4.684,5.555l0,-7.08l-11.982,0l0,57.679l11.982,0l0,-25.708c0.981,2.342 2.56,4.194 4.684,5.556c2.124,1.361 4.739,2.015 7.68,2.015c3.214,0 6.1,-0.817 8.66,-2.396c2.56,-1.634 4.575,-3.922 6.046,-6.972c1.47,-3.05 2.179,-6.591 2.179,-10.621c0.054,-4.139 -0.709,-7.734 -2.179,-10.73Zm-12.309,17.702c-1.58,1.688 -3.65,2.505 -6.21,2.505c-2.505,0 -4.575,-0.871 -6.209,-2.614c-1.634,-1.743 -2.396,-4.031 -2.396,-6.917c0,-2.942 0.817,-5.284 2.396,-6.972c1.634,-1.689 3.649,-2.56 6.209,-2.56c2.56,0 4.63,0.817 6.21,2.505c1.579,1.689 2.342,4.031 2.342,7.027c0,2.995 -0.763,5.337 -2.342,7.026Z" style="fill:#27c772;fill-rule:nonzero;"/></g></g><g id="Icon"><path d="M162.963,208.664c13.126,0 23.802,-10.675 23.802,-23.801c0,-13.127 -10.676,-23.802 -23.802,-23.802c-13.126,0 -23.802,10.675 -23.802,23.802c0,13.126 10.676,23.801 23.802,23.801Z" style="fill:#27c772;fill-rule:nonzero;"/><path d="M247.658,127.619l-169.444,0l-28.214,122.385l28.268,0l9.532,-40.958l9.531,40.958l20.915,0l0,-65.141c0,-24.673 20.044,-44.717 44.717,-44.717c24.673,0 44.717,20.044 44.717,44.717c0,24.727 -20.044,44.717 -44.717,44.717c-8.769,0 -16.885,-2.506 -23.802,-6.863l0,27.287l86.002,0l9.968,-40.577l8.769,40.577l31.971,0l-28.213,-122.385Z" style="fill:#27c772;fill-rule:nonzero;"/><path d="M247.767,115.146c0,-18.41 -14.924,-33.279 -33.279,-33.279l-34.858,0l0,-27.778c0,-9.204 -7.462,-16.666 -16.667,-16.666c-9.205,0 -16.667,7.462 -16.667,16.666l0,27.778l-34.858,0c-18.41,0 -33.279,14.924 -33.279,33.279l169.608,0Z" style="fill:#27c772;fill-rule:nonzero;"/></g></svg>