<?xml version="1.0" encoding="utf-8"?>
<!-- Generator: Adobe Illustrator 19.0.0, SVG Export Plug-In . SVG Version: 6.00 Build 0)  -->
<svg version="1.0" id="Layer_1" xmlns="http://www.w3.org/2000/svg" xmlns:xlink="http://www.w3.org/1999/xlink" x="0px" y="0px"
	 viewBox="0 0 1024 1024" style="enable-background:new 0 0 1024 1024;" xml:space="preserve">
<style type="text/css">
	.st0{fill:#52BF0C;}
	.st1{fill:#FFFFFF;}
</style>
<g id="XMLID_608_">
	<path id="XMLID_2733_" class="st0" d="M1016.1,222.2v580c0,118-96.6,214.5-214.5,214.5H221.7c-118,0-214.5-96.6-214.5-214.5v-580
		c0-118,96.6-214.5,214.5-214.5h579.9C919.6,7.7,1016.1,104.3,1016.1,222.2z"/>
	<g id="XMLID_610_">
		<path id="XMLID_788_" class="st1" d="M511.6,721c42.2,0,76.4-34.2,76.4-76.5c0-42.2-34.2-76.4-76.4-76.4s-76.4,34.2-76.4,76.4
			C435.2,686.7,469.4,721,511.6,721z"/>
		<path id="XMLID_783_" class="st1" d="M783.9,460.5H239.3l-90.8,393.3h90.9L270,722.3l30.6,131.6h67.3V644.5
			c0-79.4,64.3-143.7,143.7-143.7s143.7,64.3,143.7,143.7c0,79.4-64.4,143.7-143.7,143.7c-28.1,0-54.3-8-76.4-22v87.7h276.3
			l32.1-130.4l28.2,130.4h102.8L783.9,460.5z"/>
		<path id="XMLID_748_" class="st1" d="M784.2,420.4c0-59.1-47.9-107-107-107H565.1v-89.3c0-29.5-24-53.5-53.5-53.5
			s-53.5,24-53.5,53.5v89.3H346c-59.1,0-107,47.9-107,107v0L784.2,420.4L784.2,420.4z"/>
	</g>
</g>
</svg>
