<?xml version="1.0" encoding="UTF-8" standalone="no"?><!DOCTYPE svg PUBLIC "-//W3C//DTD SVG 1.1//EN" "http://www.w3.org/Graphics/SVG/1.1/DTD/svg11.dtd"><svg width="100%" height="100%" viewBox="0 0 300 300" version="1.1" xmlns="http://www.w3.org/2000/svg" xmlns:xlink="http://www.w3.org/1999/xlink" xml:space="preserve" xmlns:serif="http://www.serif.com/" style="fill-rule:evenodd;clip-rule:evenodd;stroke-linejoin:round;stroke-miterlimit:2;"><rect id="Icon-No-Effects" serif:id="Icon No Effects" x="0" y="0" width="300" height="300" style="fill:none;"/><g id="Icon"><path d="M150.024,201.225c11.623,0 21.076,-9.453 21.076,-21.076c0,-11.622 -9.453,-21.075 -21.076,-21.075c-11.623,0 -21.075,9.453 -21.075,21.075c0,11.623 9.452,21.076 21.075,21.076Z" style="fill:#27c772;fill-rule:nonzero;"/><path d="M225.018,129.462l-150.036,0l-24.982,108.368l25.03,0l8.44,-36.267l8.44,36.267l18.519,0l0,-57.681c0,-21.847 17.748,-39.594 39.595,-39.594c21.847,0 39.595,17.747 39.595,39.594c0,21.896 -17.748,39.595 -39.595,39.595c-7.765,0 -14.95,-2.218 -21.075,-6.076l0,24.162l76.151,0l8.826,-35.93l7.764,35.93l28.31,0l-24.982,-108.368Z" style="fill:#27c772;fill-rule:nonzero;"/><path d="M225.115,118.418c0,-16.301 -13.215,-29.467 -29.468,-29.467l-30.865,0l0,-24.596c0,-8.151 -6.607,-14.758 -14.758,-14.758c-8.15,0 -14.758,6.607 -14.758,14.758l0,24.596l-30.865,0c-16.301,0 -29.467,13.214 -29.467,29.467l150.181,0Z" style="fill:#27c772;fill-rule:nonzero;"/></g></svg>