<?xml version="1.0" encoding="utf-8"?>
<!-- Generator: Adobe Illustrator 19.0.0, SVG Export Plug-In . SVG Version: 6.00 Build 0)  -->
<svg version="1.0" id="Layer_1" xmlns="http://www.w3.org/2000/svg" xmlns:xlink="http://www.w3.org/1999/xlink" x="0px" y="0px"
	 viewBox="0 0 1024 1024" style="enable-background:new 0 0 1024 1024;" xml:space="preserve">
<style type="text/css">
	.st0{fill:#52BF0C;}
</style>
<g id="XMLID_872_">
	<g id="XMLID_877_">
		<g id="XMLID_892_">
			<path id="XMLID_904_" class="st0" d="M537.1,452.6c-6.9-6.5-16.9-9.8-30.1-9.8h-43.4v110.7h26.8v-38.8H507c8.7,0,16-1.5,22.1-4.6
				c6.1-3.1,10.6-7.3,13.7-12.7c3.1-5.4,4.6-11.5,4.6-18.4C547.4,467.9,543.9,459.1,537.1,452.6z M504,493.2h-13.6v-28.8H504
				c10.8,0,16.1,4.9,16.1,14.6C520.1,488.5,514.8,493.2,504,493.2z"/>
			<path id="XMLID_903_" class="st0" d="M587.3,482.6v-16.4h-26.8v87.4h26.8v-39.8c0-7.2,2-12.3,5.9-15.3c3.9-3,9.4-4.5,16.5-4.5
				h7.7v-28.7c-6.2,0-11.9,1.6-17.1,4.7C595,473,590.7,477.2,587.3,482.6z"/>
			<path id="XMLID_900_" class="st0" d="M708.9,486c-3.9-6.8-9.3-12-16.1-15.6c-6.8-3.6-14.6-5.4-23.3-5.4c-8.7,0-16.4,1.8-23.3,5.4
				c-6.9,3.6-12.3,8.8-16.2,15.6c-3.9,6.8-5.9,14.7-5.9,23.8c0,9.1,2,17,5.9,23.8c3.9,6.8,9.3,12,16.2,15.6
				c6.9,3.6,14.7,5.4,23.3,5.4c8.7,0,16.4-1.8,23.3-5.4c6.8-3.6,12.2-8.8,16.1-15.6c3.9-6.8,5.9-14.7,5.9-23.8
				C714.8,500.7,712.8,492.8,708.9,486z M682.4,525.8c-3.4,3.7-7.7,5.5-12.8,5.5c-5.1,0-9.4-1.8-12.9-5.5c-3.5-3.7-5.2-9-5.2-16
				c0-7,1.7-12.3,5.2-16.1c3.5-3.7,7.8-5.6,12.9-5.6c5.1,0,9.4,1.9,12.8,5.6c3.4,3.7,5.2,9.1,5.2,16.1
				C687.5,516.8,685.8,522.1,682.4,525.8z"/>
			<path id="XMLID_899_" class="st0" d="M742.3,427.5c-4.8,0-8.7,1.3-11.6,4c-2.9,2.7-4.4,6-4.4,10.1c0,4,1.5,7.3,4.4,9.9
				c2.9,2.7,6.8,4,11.6,4c4.8,0,8.7-1.3,11.6-4c2.9-2.7,4.4-6,4.4-9.9c0-4.1-1.5-7.4-4.4-10.1C751,428.8,747.1,427.5,742.3,427.5z"
				/>
			<path id="XMLID_898_" class="st0" d="M729,564.3c0,2.8-0.6,4.8-1.9,6c-1.3,1.2-3.3,1.8-6.1,1.8h-6.6v23h10.2
				c20.9,0,31.3-10.4,31.3-31.2v-97.9H729V564.3z"/>
			<path id="XMLID_895_" class="st0" d="M836.4,470.4c-6.6-3.5-14.2-5.3-22.9-5.3c-8.6,0-16.2,1.8-22.9,5.4
				c-6.7,3.6-11.9,8.8-15.6,15.5c-3.7,6.7-5.6,14.7-5.6,23.9c0,9.1,1.9,17,5.6,23.8c3.8,6.8,8.9,12,15.6,15.6
				c6.6,3.6,14.2,5.4,22.8,5.4c7.3,0,13.9-1.4,19.9-4.1c6-2.8,10.9-6.6,14.7-11.4c3.9-4.9,6.4-10.4,7.5-16.5h-28.3
				c-0.8,3.1-2.6,5.7-5.2,7.7c-2.6,2-5.9,3-9.9,3c-4.7,0-8.6-1.4-11.6-4.3c-3-2.9-4.7-7.6-5-14.2h60.6c0.5-2.6,0.8-5,0.8-7.2
				c0-8.4-1.8-15.7-5.4-22.2C848.1,478.9,843,473.9,836.4,470.4z M795.9,503.4c0.4-5.6,2.2-9.9,5.5-12.8c3.2-2.9,7.3-4.4,12.2-4.4
				c4.7,0,8.6,1.4,11.8,4.3c3.2,2.9,4.7,7.2,4.6,12.9H795.9z"/>
			<path id="XMLID_894_" class="st0" d="M909.9,488.1c4,0,7.3,1,9.9,3.1c2.6,2.1,4.3,5,5.2,8.8h28.3c-2-10.9-6.8-19.4-14.4-25.6
				c-7.6-6.2-17.1-9.3-28.3-9.3c-8.6,0-16.2,1.8-22.9,5.4c-6.7,3.6-11.9,8.8-15.6,15.5c-3.7,6.7-5.6,14.7-5.6,23.9
				c0,9.1,1.9,17,5.6,23.8c3.8,6.8,8.9,12,15.6,15.6c6.6,3.6,14.2,5.4,22.8,5.4c11.3,0,20.7-3.1,28.3-9.3
				c7.6-6.2,12.4-14.7,14.4-25.6h-28.3c-0.8,3.8-2.6,6.7-5.2,8.8c-2.6,2.1-5.9,3.1-9.9,3.1c-4.7,0-8.6-1.9-11.6-5.6
				c-3-3.7-4.5-9.1-4.5-16.2c0-7.1,1.5-12.5,4.5-16.2C901.3,489.9,905.2,488.1,909.9,488.1z"/>
			<path id="XMLID_893_" class="st0" d="M1008.2,530.5c-3.3,0-5.7-0.7-7.1-2c-1.4-1.4-2.1-3.8-2.1-7.2v-32.6h17.5v-22.5H999v-21.5
				h-26.8v21.5h-11.7v22.5h11.7v32.1c0,11.7,2.8,20.1,8.5,25.1c5.7,5.1,13.6,7.6,23.9,7.6h12.1v-23H1008.2z"/>
		</g>
		<g id="XMLID_878_">
			<path id="XMLID_891_" class="st0" d="M507.5,618.8c4.9,0,9.1,1.2,12.7,3.6c3.6,2.4,6.2,5.7,7.9,9.9h23.3
				c-2.2-10.4-7.1-18.6-14.7-24.7c-7.6-6.1-17.2-9.1-28.7-9.1c-8.8,0-16.6,2-23.3,5.8c-6.7,3.9-11.8,9.4-15.5,16.4
				c-3.6,7-5.5,15-5.5,24c0,9,1.8,17,5.5,24c3.6,7,8.8,12.5,15.5,16.4c6.7,3.9,14.4,5.8,23.3,5.8c11.6,0,21.1-3.1,28.7-9.2
				c7.6-6.1,12.5-14.3,14.7-24.6H528c-1.7,4.1-4.4,7.4-7.9,9.8c-3.6,2.4-7.8,3.6-12.7,3.6c-6.4,0-11.6-2.3-15.6-7
				c-3.9-4.7-5.9-10.9-5.9-18.8c0-7.9,2-14.2,5.9-18.9C495.8,621.2,501,618.8,507.5,618.8z"/>
			<rect id="XMLID_890_" x="563.6" y="595.2" class="st0" width="22" height="95.1"/>
			<path id="XMLID_887_" class="st0" d="M652,622c-5.4-2.9-11.7-4.4-18.8-4.4c-7,0-13.3,1.5-18.8,4.4c-5.5,3-9.8,7.2-12.8,12.7
				c-3,5.5-4.6,12.1-4.6,19.6c0,7.5,1.5,14,4.6,19.5c3.1,5.6,7.3,9.8,12.8,12.8c5.4,3,11.7,4.4,18.7,4.4c6,0,11.4-1.1,16.3-3.4
				c4.9-2.3,8.9-5.4,12.1-9.4c3.2-4,5.2-8.5,6.2-13.6h-23.3c-0.7,2.6-2.1,4.7-4.2,6.3c-2.1,1.6-4.8,2.4-8.1,2.4
				c-3.9,0-7-1.2-9.5-3.5c-2.5-2.4-3.9-6.2-4.1-11.6h49.8c0.4-2.1,0.6-4.1,0.6-5.9c0-6.9-1.5-12.9-4.4-18.2
				C661.5,629,657.4,624.9,652,622z M618.7,649.2c0.3-4.6,1.8-8.1,4.5-10.5c2.7-2.4,6-3.6,10-3.6c3.9,0,7.1,1.2,9.7,3.5
				c2.6,2.4,3.9,5.9,3.8,10.6H618.7z"/>
			<path id="XMLID_884_" class="st0" d="M730.5,631.5c-1.9-4.3-4.8-7.7-8.7-10.2c-3.9-2.5-8.7-3.7-14.1-3.7
				c-5.9,0-11.2,1.5-15.9,4.4c-4.7,3-8.4,7.2-11.1,12.7c-2.7,5.5-4.1,12.1-4.1,19.6c0,7.5,1.4,14,4.1,19.5
				c2.7,5.6,6.4,9.8,11.1,12.8c4.7,3,10,4.4,15.9,4.4c5.5,0,10.2-1.2,14.1-3.7c3.9-2.5,6.9-5.9,8.7-10.2v13h21.9v-71.7h-21.9V631.5z
				 M726.1,667.2c-3,3.2-6.7,4.8-11.4,4.8c-4.7,0-8.5-1.5-11.4-4.6c-2.9-3.1-4.3-7.4-4.3-12.9c0-5.5,1.4-9.8,4.3-12.9
				c2.9-3.1,6.7-4.6,11.4-4.6c4.6,0,8.4,1.6,11.4,4.7c3,3.1,4.4,7.4,4.4,12.8C730.5,659.7,729,664,726.1,667.2z"/>
			<path id="XMLID_883_" class="st0" d="M813,617.8c-5.5,0-10.3,1.2-14.3,3.7c-4.1,2.5-7.1,5.9-9.2,10.2v-13.1h-22v71.7h22v-38.1
				c0-5.2,1.3-9.3,3.9-12.1c2.6-2.8,6.1-4.2,10.6-4.2c4.2,0,7.6,1.3,10.1,4.1c2.5,2.7,3.8,6.4,3.8,11.2v39.1h22v-41.7
				c0-9.6-2.4-17.1-7.3-22.6C827.8,620.5,821.3,617.8,813,617.8z"/>
			<path id="XMLID_882_" class="st0" d="M903.7,656.6c0,5.2-1.3,9.3-3.9,12.1c-2.6,2.8-6.1,4.2-10.5,4.2c-4.3,0-7.7-1.3-10.2-4
				c-2.5-2.7-3.8-6.5-3.8-11.4v-39h-21.9v41.7c0,9.6,2.4,17.1,7.3,22.6c4.8,5.5,11.4,8.2,19.6,8.2c5.4,0,10.1-1.2,14.2-3.7
				c4.1-2.5,7.1-5.8,9.2-10v13h22.1v-71.7h-22.1V656.6z"/>
			<path id="XMLID_879_" class="st0" d="M1012.6,634.8c-2.7-5.5-6.4-9.8-11.1-12.7c-4.7-3-10-4.4-15.9-4.4c-5.5,0-10.2,1.2-14.1,3.7
				c-3.9,2.5-6.8,5.9-8.6,10.2v-13h-22v105.9h22v-47.2c1.8,4.3,4.7,7.7,8.6,10.2c3.9,2.5,8.7,3.7,14.1,3.7c5.9,0,11.2-1.5,15.9-4.4
				c4.7-3,8.4-7.2,11.1-12.8c2.7-5.6,4-12.1,4-19.5C1016.7,646.9,1015.3,640.3,1012.6,634.8z M990,667.3c-2.9,3.1-6.7,4.6-11.4,4.6
				c-4.6,0-8.4-1.6-11.4-4.8c-3-3.2-4.4-7.4-4.4-12.7c0-5.4,1.5-9.7,4.4-12.8c3-3.1,6.7-4.7,11.4-4.7c4.7,0,8.5,1.5,11.4,4.6
				c2.9,3.1,4.3,7.4,4.3,12.9C994.3,659.9,992.9,664.2,990,667.3z"/>
		</g>
	</g>
	<g id="XMLID_873_">
		<path id="XMLID_876_" class="st0" d="M214.3,614.5c24.1,0,43.7-19.6,43.7-43.7c0-24.1-19.6-43.7-43.7-43.7s-43.7,19.6-43.7,43.7
			C170.6,594.9,190.2,614.5,214.3,614.5z"/>
		<path id="XMLID_875_" class="st0" d="M369.8,465.7H58.7L6.9,690.4h51.9l17.5-75.2l17.5,75.2h38.4V570.8
			c0-45.3,36.8-82.1,82.1-82.1s82.1,36.8,82.1,82.1c0,45.4-36.8,82.1-82.1,82.1c-16.1,0-31-4.6-43.7-12.6v50.1h157.9l18.3-74.5
			l16.1,74.5h58.7L369.8,465.7z"/>
		<path id="XMLID_874_" class="st0" d="M370,442.8c0-33.8-27.4-61.1-61.1-61.1h-64v-51c0-16.9-13.7-30.6-30.6-30.6
			s-30.6,13.7-30.6,30.6v51h-64c-33.8,0-61.1,27.4-61.1,61.1v0L370,442.8L370,442.8z"/>
	</g>
</g>
</svg>
