<?xml version="1.0" encoding="utf-8"?>
<!-- Generator: Adobe Illustrator 19.0.0, SVG Export Plug-In . SVG Version: 6.00 Build 0)  -->
<svg version="1.0" id="Layer_1" xmlns="http://www.w3.org/2000/svg" xmlns:xlink="http://www.w3.org/1999/xlink" x="0px" y="0px"
	 viewBox="0 0 1024 1024" style="enable-background:new 0 0 1024 1024;" xml:space="preserve">
<style type="text/css">
	.st0{fill:#52BF0C;}
	.st1{fill:#FFFFFF;}
</style>
<g id="XMLID_607_">
	<circle id="XMLID_605_" class="st0" cx="512.1" cy="512.2" r="504.5"/>
	<g id="XMLID_601_">
		<path id="XMLID_604_" class="st1" d="M512.1,691.2c36.2,0,65.5-29.4,65.5-65.6c0-36.2-29.4-65.5-65.5-65.5
			c-36.2,0-65.5,29.4-65.5,65.5C446.6,661.8,475.9,691.2,512.1,691.2z"/>
		<path id="XMLID_603_" class="st1" d="M745.6,467.9h-467l-77.8,337.3h77.9L305,692.4l26.2,112.8h57.7V625.6
			c0-68.1,55.2-123.2,123.2-123.2c68.1,0,123.2,55.2,123.2,123.2c0,68.1-55.2,123.2-123.2,123.2c-24.1,0-46.6-6.9-65.5-18.9v75.2
			h237l27.5-111.8l24.2,111.8h88.2L745.6,467.9z"/>
		<path id="XMLID_602_" class="st1" d="M745.9,433.4c0-50.7-41.1-91.8-91.8-91.8H558v-76.6c0-25.3-20.5-45.9-45.9-45.9
			c-25.3,0-45.9,20.5-45.9,45.9v76.6h-96.1c-50.7,0-91.8,41.1-91.8,91.8v0L745.9,433.4L745.9,433.4z"/>
	</g>
</g>
</svg>
