<?xml version="1.0" encoding="utf-8"?>
<!-- Generator: Adobe Illustrator 19.0.0, SVG Export Plug-In . SVG Version: 6.00 Build 0)  -->
<svg version="1.0" id="Layer_1" xmlns="http://www.w3.org/2000/svg" xmlns:xlink="http://www.w3.org/1999/xlink" x="0px" y="0px"
	 viewBox="0 0 1024 1024" style="enable-background:new 0 0 1024 1024;" xml:space="preserve">
<style type="text/css">
	.st0{fill:#52BF0C;}
</style>
<g id="XMLID_838_">
	<g id="XMLID_609_">
		<path id="XMLID_791_" class="st0" d="M512.4,454.4c33.9,0,61.4-27.5,61.4-61.4c0-33.9-27.5-61.4-61.4-61.4S451,359.1,451,393
			C451,426.9,478.5,454.4,512.4,454.4z"/>
		<path id="XMLID_790_" class="st0" d="M731.1,245.2H293.7l-72.9,315.9h73l24.6-105.7L343,561.1h54V393
			c0-63.7,51.7-115.4,115.4-115.4S627.8,329.2,627.8,393c0,63.8-51.7,115.4-115.4,115.4c-22.6,0-43.6-6.5-61.4-17.7v70.4h221.9
			l25.8-104.7l22.7,104.7H804L731.1,245.2z"/>
		<path id="XMLID_789_" class="st0" d="M731.3,213c0-47.5-38.5-85.9-85.9-85.9h-90V55.3c0-23.7-19.2-43-43-43c-23.7,0-43,19.2-43,43
			V127h-90c-47.5,0-85.9,38.5-85.9,85.9v0L731.3,213L731.3,213z"/>
	</g>
	<g id="XMLID_596_">
		<g id="XMLID_819_">
			<path id="XMLID_835_" class="st0" d="M242.6,650.2c-9.2-8.7-22.5-13-39.9-13H145v147.1h35.6v-51.6h22.1c11.5,0,21.3-2,29.3-6.1
				c8-4.1,14.1-9.7,18.2-16.9c4.1-7.1,6.1-15.3,6.1-24.4C256.3,670.5,251.7,658.8,242.6,650.2z M198.7,704.2h-18.1v-38.3h18.1
				c14.3,0,21.4,6.4,21.4,19.3C220.1,697.9,213,704.2,198.7,704.2z"/>
			<path id="XMLID_834_" class="st0" d="M309.4,690v-21.8h-35.6v116.1h35.6v-52.8c0-9.6,2.6-16.4,7.8-20.4c5.2-4,12.5-6,21.9-6h10.2
				v-38.1c-8.2,0-15.8,2.1-22.8,6.2C319.5,677.3,313.8,682.9,309.4,690z"/>
			<path id="XMLID_831_" class="st0" d="M470.9,694.6c-5.2-9-12.3-15.9-21.4-20.7c-9.1-4.8-19.4-7.2-30.9-7.2
				c-11.5,0-21.8,2.4-31,7.2c-9.2,4.8-16.3,11.7-21.5,20.7c-5.2,9-7.8,19.6-7.8,31.6c0,12.1,2.6,22.6,7.8,31.6
				c5.2,9,12.4,15.9,21.5,20.7c9.2,4.8,19.5,7.2,31,7.2c11.5,0,21.8-2.4,30.9-7.2c9.1-4.8,16.2-11.7,21.4-20.7
				c5.2-9,7.8-19.6,7.8-31.6C478.7,714.1,476.1,703.6,470.9,694.6z M435.6,747.4c-4.6,4.9-10.3,7.3-17.1,7.3
				c-6.8,0-12.5-2.4-17.2-7.3c-4.6-4.9-7-11.9-7-21.2c0-9.3,2.3-16.4,7-21.3c4.6-4.9,10.4-7.4,17.2-7.4c6.8,0,12.5,2.5,17.1,7.4
				c4.6,4.9,6.9,12,6.9,21.3C442.5,735.5,440.2,742.6,435.6,747.4z"/>
			<path id="XMLID_830_" class="st0" d="M515.3,616.8c-6.4,0-11.5,1.8-15.4,5.3c-3.9,3.5-5.8,8-5.8,13.4c0,5.3,1.9,9.7,5.8,13.2
				c3.9,3.5,9,5.3,15.4,5.3c6.4,0,11.5-1.8,15.4-5.3c3.9-3.5,5.8-7.9,5.8-13.2c0-5.4-1.9-9.9-5.8-13.4
				C526.8,618.5,521.7,616.8,515.3,616.8z"/>
			<path id="XMLID_829_" class="st0" d="M497.6,798.6c0,3.7-0.8,6.4-2.5,8c-1.7,1.6-4.4,2.4-8.1,2.4h-8.7v30.6h13.5
				c27.7,0,41.6-13.8,41.6-41.4v-130h-35.8V798.6z"/>
			<path id="XMLID_826_" class="st0" d="M640.3,673.8c-8.7-4.7-18.9-7.1-30.4-7.1c-11.4,0-21.5,2.4-30.4,7.2
				c-8.9,4.8-15.8,11.7-20.7,20.6c-4.9,8.9-7.4,19.5-7.4,31.7c0,12.1,2.5,22.6,7.5,31.6c5,9,11.9,15.9,20.7,20.7
				c8.8,4.8,18.9,7.2,30.3,7.2c9.7,0,18.5-1.8,26.4-5.5c7.9-3.7,14.4-8.7,19.6-15.2c5.1-6.4,8.5-13.8,10-21.9h-37.7
				c-1.1,4.2-3.4,7.6-6.9,10.2c-3.5,2.6-7.8,4-13.1,4c-6.2,0-11.4-1.9-15.4-5.7c-4-3.8-6.2-10.1-6.7-18.8h80.5c0.7-3.5,1-6.7,1-9.6
				c0-11.1-2.4-20.9-7.2-29.4C655.8,685.1,649.1,678.5,640.3,673.8z M586.5,717.7c0.6-7.5,3-13.2,7.3-17.1c4.3-3.9,9.7-5.8,16.2-5.8
				c6.2,0,11.5,1.9,15.7,5.7c4.2,3.8,6.3,9.5,6.1,17.2H586.5z"/>
			<path id="XMLID_825_" class="st0" d="M737.9,697.3c5.3,0,9.6,1.4,13.1,4.2c3.5,2.8,5.8,6.7,6.9,11.7h37.7
				c-2.6-14.4-9-25.8-19.1-34c-10.1-8.2-22.7-12.4-37.7-12.4c-11.4,0-21.5,2.4-30.4,7.2c-8.9,4.8-15.8,11.7-20.7,20.6
				c-4.9,8.9-7.4,19.5-7.4,31.7c0,12.1,2.5,22.6,7.5,31.6c5,9,11.9,15.9,20.7,20.7c8.8,4.8,18.9,7.2,30.3,7.2
				c15,0,27.5-4.1,37.7-12.4c10.1-8.2,16.5-19.6,19.1-34h-37.7c-1.1,5-3.4,8.9-6.9,11.7c-3.5,2.8-7.8,4.2-13.1,4.2
				c-6.2,0-11.4-2.5-15.4-7.4c-4-4.9-6-12.1-6-21.5c0-9.4,2-16.6,6-21.5C726.5,699.8,731.7,697.3,737.9,697.3z"/>
			<path id="XMLID_820_" class="st0" d="M868.6,753.7c-4.4,0-7.6-0.9-9.5-2.7c-1.9-1.8-2.8-5-2.8-9.6v-43.3h23.3v-30h-23.3v-28.5
				h-35.6v28.5h-15.6v30h15.6v42.6c0,15.5,3.8,26.7,11.3,33.4c7.6,6.7,18.1,10.1,31.7,10.1h16v-30.6H868.6z"/>
		</g>
		<g id="XMLID_600_">
			<path id="XMLID_818_" class="st0" d="M203.2,871c6.5,0,12.1,1.6,16.8,4.8c4.7,3.2,8.2,7.6,10.5,13.2h30.9
				c-3-13.8-9.5-24.7-19.6-32.8c-10.1-8.1-22.8-12.1-38.2-12.1c-11.7,0-22,2.6-30.9,7.8c-8.9,5.2-15.7,12.4-20.6,21.8
				c-4.8,9.3-7.3,20-7.3,31.9c0,12,2.4,22.6,7.3,31.9c4.8,9.3,11.7,16.6,20.6,21.8c8.9,5.2,19.2,7.8,30.9,7.8
				c15.4,0,28.1-4.1,38.2-12.2c10.1-8.1,16.6-19,19.6-32.7h-30.9c-2.3,5.5-5.8,9.8-10.5,13c-4.7,3.2-10.3,4.8-16.8,4.8
				c-8.5,0-15.4-3.1-20.7-9.3c-5.2-6.2-7.9-14.5-7.9-25c0-10.5,2.6-18.8,7.9-25.1C187.8,874.2,194.7,871,203.2,871z"/>
			<rect id="XMLID_817_" x="277.9" y="839.6" class="st0" width="29.2" height="126.4"/>
			<path id="XMLID_814_" class="st0" d="M395.2,875.3c-7.2-3.9-15.5-5.8-24.9-5.8c-9.3,0-17.7,2-24.9,5.9c-7.3,3.9-13,9.6-17,16.9
				c-4,7.3-6.1,16-6.1,26c0,9.9,2.1,18.6,6.1,26c4.1,7.4,9.8,13.1,17,17c7.2,3.9,15.5,5.9,24.9,5.9c8,0,15.2-1.5,21.7-4.5
				c6.5-3,11.8-7.2,16.1-12.5c4.2-5.3,6.9-11.3,8.2-18h-30.9c-0.9,3.4-2.8,6.2-5.6,8.4c-2.8,2.2-6.4,3.2-10.8,3.2
				c-5.1,0-9.3-1.6-12.6-4.7c-3.3-3.1-5.1-8.3-5.5-15.5h66.1c0.6-2.8,0.9-5.5,0.9-7.9c0-9.1-2-17.2-5.9-24.2
				C408,884.6,402.4,879.2,395.2,875.3z M351,911.3c0.5-6.1,2.4-10.8,6-14c3.5-3.2,8-4.8,13.3-4.8c5.1,0,9.4,1.6,12.9,4.7
				c3.5,3.1,5.2,7.8,5,14.1H351z"/>
			<path id="XMLID_811_" class="st0" d="M499.6,887.9c-2.5-5.7-6.4-10.2-11.6-13.5c-5.2-3.3-11.5-5-18.8-5c-7.9,0-14.9,2-21.1,5.9
				c-6.2,3.9-11.1,9.6-14.7,16.9c-3.6,7.3-5.4,16-5.4,26c0,9.9,1.8,18.6,5.4,26c3.6,7.4,8.5,13.1,14.7,17c6.2,3.9,13.2,5.9,21.1,5.9
				c7.3,0,13.6-1.7,18.8-5c5.2-3.3,9.1-7.8,11.6-13.5V966h29v-95.3h-29V887.9z M493.7,935.2c-3.9,4.2-9,6.3-15.1,6.3
				c-6.3,0-11.3-2-15.1-6.1c-3.8-4.1-5.7-9.8-5.7-17.1c0-7.3,1.9-13,5.7-17.1c3.8-4.1,8.9-6.1,15.1-6.1c6.1,0,11.2,2.1,15.1,6.2
				c3.9,4.2,5.9,9.8,5.9,17C499.6,925.4,497.6,931,493.7,935.2z"/>
			<path id="XMLID_810_" class="st0" d="M609.2,869.7c-7.3,0-13.6,1.7-19,5c-5.4,3.3-9.5,7.8-12.2,13.5v-17.4h-29.2V966H578v-50.6
				c0-6.9,1.7-12.3,5.2-16.1c3.5-3.8,8.2-5.6,14.1-5.6c5.6,0,10,1.8,13.4,5.4c3.4,3.6,5,8.6,5,14.9V966h29.2v-55.3
				c0-12.8-3.2-22.8-9.7-30.1C628.9,873.3,620.2,869.7,609.2,869.7z"/>
			<path id="XMLID_801_" class="st0" d="M729.7,921.2c0,6.9-1.7,12.3-5.1,16.1c-3.4,3.8-8.1,5.6-14,5.6c-5.7,0-10.2-1.8-13.6-5.4
				c-3.4-3.6-5-8.6-5-15.1v-51.8h-29V926c0,12.8,3.2,22.8,9.7,30.1c6.4,7.3,15.1,10.9,26,10.9c7.2,0,13.5-1.6,18.9-5
				c5.4-3.3,9.5-7.7,12.2-13.3V966H759v-95.3h-29.4V921.2z"/>
			<path id="XMLID_606_" class="st0" d="M874.4,892.3c-3.6-7.3-8.5-13-14.7-16.9c-6.2-3.9-13.2-5.9-21.1-5.9c-7.3,0-13.6,1.7-18.8,5
				c-5.2,3.3-9.1,7.8-11.4,13.5v-17.3h-29.2v140.7h29.2v-62.7c2.4,5.7,6.2,10.2,11.4,13.5c5.2,3.3,11.5,5,18.8,5
				c7.9,0,14.9-2,21.1-5.9c6.2-3.9,11.1-9.6,14.7-17c3.6-7.4,5.4-16.1,5.4-26C879.8,908.3,878,899.6,874.4,892.3z M844.4,935.4
				c-3.8,4.1-8.9,6.1-15.1,6.1c-6.1,0-11.2-2.1-15.1-6.3c-3.9-4.2-5.9-9.8-5.9-16.9c0-7.2,2-12.8,5.9-17c3.9-4.2,9-6.2,15.1-6.2
				c6.3,0,11.3,2.1,15.1,6.1c3.8,4.1,5.7,9.8,5.7,17.1C850.1,925.6,848.2,931.3,844.4,935.4z"/>
		</g>
	</g>
</g>
</svg>
