<?xml version="1.0" encoding="utf-8"?>
<!-- Generator: Adobe Illustrator 19.0.0, SVG Export Plug-In . SVG Version: 6.00 Build 0)  -->
<svg version="1.0" id="Layer_1" xmlns="http://www.w3.org/2000/svg" xmlns:xlink="http://www.w3.org/1999/xlink" x="0px" y="0px"
	 viewBox="0 0 1024 1024" style="enable-background:new 0 0 1024 1024;" xml:space="preserve">
<style type="text/css">
	.st0{fill:#52BF0C;}
</style>
<g id="XMLID_784_">
	<path id="XMLID_787_" class="st0" d="M512.1,802.9c58.7,0,106.3-47.6,106.3-106.4c0-58.7-47.6-106.3-106.3-106.3
		c-58.7,0-106.3,47.6-106.3,106.3C405.8,755.3,453.4,802.9,512.1,802.9z"/>
	<path id="XMLID_786_" class="st0" d="M890.9,440.7H133.4L7.1,987.8h126.4l42.6-183l42.6,183h93.6V696.5
		c0-110.4,89.5-199.9,199.9-199.9s199.9,89.5,199.9,199.9c0,110.4-89.5,199.9-199.9,199.9c-39.1,0-75.5-11.2-106.3-30.6v122h384.4
		l44.7-181.3l39.3,181.3h143L890.9,440.7z"/>
	<path id="XMLID_785_" class="st0" d="M891.3,384.7c0-82.2-66.6-148.9-148.9-148.9H586.6V111.7c0-41.1-33.3-74.4-74.4-74.4
		s-74.4,33.3-74.4,74.4v124.2H281.8c-82.2,0-148.9,66.6-148.9,148.9v0L891.3,384.7L891.3,384.7z"/>
</g>
</svg>
